<svg width="25" height="24" viewBox="0 0 25 24" fill="none" xmlns="http://www.w3.org/2000/svg">
<path d="M8.5 5.75C8.09 5.75 7.75 5.41 7.75 5V2C7.75 1.59 8.09 1.25 8.5 1.25C8.91 1.25 9.25 1.59 9.25 2V5C9.25 5.41 8.91 5.75 8.5 5.75Z" fill="#292D32"/>
<path d="M16.5 5.75C16.09 5.75 15.75 5.41 15.75 5V2C15.75 1.59 16.09 1.25 16.5 1.25C16.91 1.25 17.25 1.59 17.25 2V5C17.25 5.41 16.91 5.75 16.5 5.75Z" fill="#292D32"/>
<path d="M9 14.5C8.87 14.5 8.74 14.47 8.62 14.42C8.49 14.37 8.39 14.3 8.29 14.21C8.11 14.02 8 13.77 8 13.5C8 13.37 8.03 13.24 8.08 13.12C8.13 13 8.2 12.89 8.29 12.79C8.39 12.7 8.49 12.63 8.62 12.58C8.98 12.43 9.43 12.51 9.71 12.79C9.89 12.98 10 13.24 10 13.5C10 13.56 9.99 13.63 9.98 13.7C9.97 13.76 9.95 13.82 9.92 13.88C9.9 13.94 9.87 14 9.83 14.06C9.8 14.11 9.75 14.16 9.71 14.21C9.52 14.39 9.26 14.5 9 14.5Z" fill="#292D32"/>
<path d="M12.5 14.5C12.37 14.5 12.24 14.47 12.12 14.42C11.99 14.37 11.89 14.3 11.79 14.21C11.61 14.02 11.5 13.77 11.5 13.5C11.5 13.37 11.53 13.24 11.58 13.12C11.63 13 11.7 12.89 11.79 12.79C11.89 12.7 11.99 12.63 12.12 12.58C12.48 12.42 12.93 12.51 13.21 12.79C13.39 12.98 13.5 13.24 13.5 13.5C13.5 13.56 13.49 13.63 13.48 13.7C13.47 13.76 13.45 13.82 13.42 13.88C13.4 13.94 13.37 14 13.33 14.06C13.3 14.11 13.25 14.16 13.21 14.21C13.02 14.39 12.76 14.5 12.5 14.5Z" fill="#292D32"/>
<path d="M16 14.5C15.87 14.5 15.74 14.47 15.62 14.42C15.49 14.37 15.39 14.3 15.29 14.21C15.25 14.16 15.21 14.11 15.17 14.06C15.13 14 15.1 13.94 15.08 13.88C15.05 13.82 15.03 13.76 15.02 13.7C15.01 13.63 15 13.56 15 13.5C15 13.24 15.11 12.98 15.29 12.79C15.39 12.7 15.49 12.63 15.62 12.58C15.99 12.42 16.43 12.51 16.71 12.79C16.89 12.98 17 13.24 17 13.5C17 13.56 16.99 13.63 16.98 13.7C16.97 13.76 16.95 13.82 16.92 13.88C16.9 13.94 16.87 14 16.83 14.06C16.8 14.11 16.75 14.16 16.71 14.21C16.52 14.39 16.26 14.5 16 14.5Z" fill="#292D32"/>
<path d="M9 18C8.87 18 8.74 17.97 8.62 17.92C8.5 17.87 8.39 17.8 8.29 17.71C8.11 17.52 8 17.26 8 17C8 16.87 8.03 16.74 8.08 16.62C8.13 16.49 8.2 16.38 8.29 16.29C8.66 15.92 9.34 15.92 9.71 16.29C9.89 16.48 10 16.74 10 17C10 17.26 9.89 17.52 9.71 17.71C9.52 17.89 9.26 18 9 18Z" fill="#292D32"/>
<path d="M12.5 18C12.24 18 11.98 17.89 11.79 17.71C11.61 17.52 11.5 17.26 11.5 17C11.5 16.87 11.53 16.74 11.58 16.62C11.63 16.49 11.7 16.38 11.79 16.29C12.16 15.92 12.84 15.92 13.21 16.29C13.3 16.38 13.37 16.49 13.42 16.62C13.47 16.74 13.5 16.87 13.5 17C13.5 17.26 13.39 17.52 13.21 17.71C13.02 17.89 12.76 18 12.5 18Z" fill="#292D32"/>
<path d="M16 18C15.74 18 15.48 17.89 15.29 17.71C15.2 17.62 15.13 17.51 15.08 17.38C15.03 17.26 15 17.13 15 17C15 16.87 15.03 16.74 15.08 16.62C15.13 16.49 15.2 16.38 15.29 16.29C15.52 16.06 15.87 15.95 16.19 16.02C16.26 16.03 16.32 16.05 16.38 16.08C16.44 16.1 16.5 16.13 16.56 16.17C16.61 16.2 16.66 16.25 16.71 16.29C16.89 16.48 17 16.74 17 17C17 17.26 16.89 17.52 16.71 17.71C16.52 17.89 16.26 18 16 18Z" fill="#292D32"/>
<path d="M21 9.83997H4C3.59 9.83997 3.25 9.49997 3.25 9.08997C3.25 8.67997 3.59 8.33997 4 8.33997H21C21.41 8.33997 21.75 8.67997 21.75 9.08997C21.75 9.49997 21.41 9.83997 21 9.83997Z" fill="#292D32"/>
<path d="M16.5 22.75H8.5C4.85 22.75 2.75 20.65 2.75 17V8.5C2.75 4.85 4.85 2.75 8.5 2.75H16.5C20.15 2.75 22.25 4.85 22.25 8.5V17C22.25 20.65 20.15 22.75 16.5 22.75ZM8.5 4.25C5.64 4.25 4.25 5.64 4.25 8.5V17C4.25 19.86 5.64 21.25 8.5 21.25H16.5C19.36 21.25 20.75 19.86 20.75 17V8.5C20.75 5.64 19.36 4.25 16.5 4.25H8.5Z" fill="#292D32"/>
</svg>
