<svg width="25" height="24" viewBox="0 0 16 17" fill="none" xmlns="http://www.w3.org/2000/svg">
<path d="M13.3331 8.33339H2.6664C2.51306 8.33339 2.37306 8.26672 2.27973 8.14672C2.1864 8.03339 2.1464 7.87339 2.17973 7.72672L2.93306 4.12672C3.17973 2.96005 3.67973 1.88672 5.65973 1.88672H10.3464C12.3264 1.88672 12.8264 2.96672 13.0731 4.12672L13.8264 7.73339C13.8597 7.88005 13.8197 8.03339 13.7264 8.15339C13.6264 8.26672 13.4864 8.33339 13.3331 8.33339ZM3.27973 7.33339H12.7131L12.0864 4.33339C11.8997 3.46005 11.6797 2.88672 10.3397 2.88672H5.65973C4.31973 2.88672 4.09973 3.46005 3.91306 4.33339L3.27973 7.33339Z" fill="#575757"/>
<path d="M13.3064 15.6667H12.0531C10.9731 15.6667 10.7664 15.0467 10.6331 14.6401L10.4997 14.2401C10.3264 13.7334 10.3064 13.6667 9.7064 13.6667H6.29306C5.69306 13.6667 5.65306 13.7801 5.49973 14.2401L5.3664 14.6401C5.2264 15.0534 5.0264 15.6667 3.9464 15.6667H2.69306C2.1664 15.6667 1.65973 15.4467 1.3064 15.0601C0.959732 14.6801 0.793065 14.1734 0.839732 13.6667L1.21307 9.60672C1.31307 8.50672 1.6064 7.33339 3.7464 7.33339H12.2531C14.3931 7.33339 14.6797 8.50672 14.7864 9.60672L15.1597 13.6667C15.2064 14.1734 15.0397 14.6801 14.6931 15.0601C14.3397 15.4467 13.8331 15.6667 13.3064 15.6667ZM6.29306 12.6667H9.7064C10.9197 12.6667 11.2064 13.2067 11.4464 13.9134L11.5864 14.3267C11.6997 14.6667 11.6997 14.6734 12.0597 14.6734H13.3131C13.5597 14.6734 13.7931 14.5734 13.9597 14.3934C14.1197 14.2201 14.1931 14.0001 14.1731 13.7667L13.7997 9.70672C13.7131 8.80672 13.6064 8.34006 12.2664 8.34006H3.7464C2.39973 8.34006 2.29306 8.80672 2.21306 9.70672L1.83973 13.7667C1.81973 14.0001 1.89306 14.2201 2.05306 14.3934C2.21306 14.5734 2.45307 14.6734 2.69973 14.6734H3.95306C4.31306 14.6734 4.31306 14.6667 4.4264 14.3334L4.55973 13.9267C4.7264 13.3934 4.97306 12.6667 6.29306 12.6667Z" fill="#575757"/>
<path d="M2.66639 6.33339H1.99973C1.72639 6.33339 1.49973 6.10672 1.49973 5.83339C1.49973 5.56006 1.72639 5.33339 1.99973 5.33339H2.66639C2.93973 5.33339 3.16639 5.56006 3.16639 5.83339C3.16639 6.10672 2.93973 6.33339 2.66639 6.33339Z" fill="#575757"/>
<path d="M13.9997 6.33339H13.3331C13.0597 6.33339 12.8331 6.10672 12.8331 5.83339C12.8331 5.56006 13.0597 5.33339 13.3331 5.33339H13.9997C14.2731 5.33339 14.4997 5.56006 14.4997 5.83339C14.4997 6.10672 14.2731 6.33339 13.9997 6.33339Z" fill="#575757"/>
<path d="M7.99973 4.33338C7.72639 4.33338 7.49973 4.10671 7.49973 3.83338V2.50005C7.49973 2.22671 7.72639 2.00005 7.99973 2.00005C8.27306 2.00005 8.49973 2.22671 8.49973 2.50005V3.83338C8.49973 4.10671 8.27306 4.33338 7.99973 4.33338Z" fill="#575757"/>
<path d="M8.99973 4.33339H6.99973C6.72639 4.33339 6.49973 4.10672 6.49973 3.83339C6.49973 3.56006 6.72639 3.33339 6.99973 3.33339H8.99973C9.27306 3.33339 9.49973 3.56006 9.49973 3.83339C9.49973 4.10672 9.27306 4.33339 8.99973 4.33339Z" fill="#575757"/>
<path d="M5.99973 11H3.99973C3.72639 11 3.49973 10.7734 3.49973 10.5C3.49973 10.2267 3.72639 10 3.99973 10H5.99973C6.27306 10 6.49973 10.2267 6.49973 10.5C6.49973 10.7734 6.27306 11 5.99973 11Z" fill="#575757"/>
<path d="M11.9997 11H9.99973C9.72639 11 9.49973 10.7734 9.49973 10.5C9.49973 10.2267 9.72639 10 9.99973 10H11.9997C12.2731 10 12.4997 10.2267 12.4997 10.5C12.4997 10.7734 12.2731 11 11.9997 11Z" fill="#575757"/>
</svg>
