<svg width="25" height="24" viewBox="0 0 25 24" fill="none" xmlns="http://www.w3.org/2000/svg">
<path d="M12.5 22.75C6.57 22.75 1.75 17.93 1.75 12C1.75 6.07 6.57 1.25 12.5 1.25C18.43 1.25 23.25 6.07 23.25 12C23.25 17.93 18.43 22.75 12.5 22.75ZM12.5 2.75C7.4 2.75 3.25 6.9 3.25 12C3.25 17.1 7.4 21.25 12.5 21.25C17.6 21.25 21.75 17.1 21.75 12C21.75 6.9 17.6 2.75 12.5 2.75Z" fill="#292D32"/>
<path d="M16.21 15.93C16.08 15.93 15.95 15.9 15.83 15.82L12.73 13.97C11.96 13.51 11.39 12.5 11.39 11.61V7.51001C11.39 7.10001 11.73 6.76001 12.14 6.76001C12.55 6.76001 12.89 7.10001 12.89 7.51001V11.61C12.89 11.97 13.19 12.5 13.5 12.68L16.6 14.53C16.96 14.74 17.07 15.2 16.86 15.56C16.71 15.8 16.46 15.93 16.21 15.93Z" fill="#292D32"/>
</svg>
