<svg width="16" height="17" viewBox="0 0 16 17" fill="none" xmlns="http://www.w3.org/2000/svg">
<path d="M11.6666 15.6667H2.33331C2.05998 15.6667 1.83331 15.44 1.83331 15.1667V3.83333C1.83331 2.33999 2.83998 1.33333 4.33331 1.33333H9.66665C11.16 1.33333 12.1666 2.33999 12.1666 3.83333V15.1667C12.1666 15.44 11.94 15.6667 11.6666 15.6667ZM2.83331 14.6667H11.1666V3.83333C11.1666 2.89333 10.6066 2.33333 9.66665 2.33333H4.33331C3.39331 2.33333 2.83331 2.89333 2.83331 3.83333V14.6667Z" fill="#575757"/>
<path d="M12.6666 15.6667H1.33331C1.05998 15.6667 0.833313 15.44 0.833313 15.1667C0.833313 14.8933 1.05998 14.6667 1.33331 14.6667H12.6666C12.94 14.6667 13.1666 14.8933 13.1666 15.1667C13.1666 15.44 12.94 15.6667 12.6666 15.6667Z" fill="#575757"/>
<path d="M8.40684 7.66666H5.58684C4.50018 7.66666 3.82684 6.99332 3.82684 5.90666V5.08666C3.82684 3.99999 4.50018 3.32666 5.58684 3.32666H8.40684C9.49351 3.32666 10.1668 3.99999 10.1668 5.08666V5.90666C10.1668 6.99332 9.49351 7.66666 8.40684 7.66666ZM5.59351 4.33332C5.05351 4.33332 4.83351 4.55332 4.83351 5.09332V5.91332C4.83351 6.45332 5.05351 6.67332 5.59351 6.67332H8.41351C8.95351 6.67332 9.17351 6.45332 9.17351 5.91332V5.09332C9.17351 4.55332 8.95351 4.33332 8.41351 4.33332H5.59351Z" fill="#575757"/>
<path d="M6.33331 9.66667H4.33331C4.05998 9.66667 3.83331 9.44001 3.83331 9.16667C3.83331 8.89334 4.05998 8.66667 4.33331 8.66667H6.33331C6.60665 8.66667 6.83331 8.89334 6.83331 9.16667C6.83331 9.44001 6.60665 9.66667 6.33331 9.66667Z" fill="#575757"/>
<path d="M11.6667 11.6733C11.3934 11.6733 11.1667 11.4533 11.1667 11.1733C11.1667 10.9 11.3867 10.6733 11.6667 10.6733L14.1667 10.6667V7.47333L13.1067 6.94666C12.86 6.81999 12.76 6.51999 12.88 6.27333C13.0067 6.02666 13.3067 5.92666 13.5534 6.04666L14.8867 6.71333C15.0534 6.8 15.16 6.97333 15.16 7.15999V11.16C15.16 11.4333 14.94 11.66 14.66 11.66L11.6667 11.6733Z" fill="#575757"/>
</svg>
