<svg width="57" height="57" viewBox="0 0 57 57" fill="none" xmlns="http://www.w3.org/2000/svg">
<path d="M28.5 47.75C17.8833 47.75 9.25 39.1167 9.25 28.5C9.25 17.8833 17.8833 9.25 28.5 9.25C39.1167 9.25 47.75 17.8833 47.75 28.5C47.75 39.1167 39.1167 47.75 28.5 47.75ZM28.5 12.75C19.82 12.75 12.75 19.82 12.75 28.5C12.75 37.18 19.82 44.25 28.5 44.25C37.18 44.25 44.25 37.18 44.25 28.5C44.25 19.82 37.18 12.75 28.5 12.75Z" fill="#FE8400"/>
<path d="M28.5 37.25C23.67 37.25 19.75 33.33 19.75 28.5C19.75 23.67 23.67 19.75 28.5 19.75C33.33 19.75 37.25 23.67 37.25 28.5C37.25 33.33 33.33 37.25 28.5 37.25ZM28.5 23.25C25.6067 23.25 23.25 25.6067 23.25 28.5C23.25 31.3933 25.6067 33.75 28.5 33.75C31.3933 33.75 33.75 31.3933 33.75 28.5C33.75 25.6067 31.3933 23.25 28.5 23.25Z" fill="#FE8400"/>
<path d="M28.5 11.5833C27.5433 11.5833 26.75 10.79 26.75 9.83332V5.16666C26.75 4.20999 27.5433 3.41666 28.5 3.41666C29.4567 3.41666 30.25 4.20999 30.25 5.16666V9.83332C30.25 10.79 29.4567 11.5833 28.5 11.5833Z" fill="#FE8400"/>
<path d="M9.83334 30.25H5.16667C4.21001 30.25 3.41667 29.4567 3.41667 28.5C3.41667 27.5433 4.21001 26.75 5.16667 26.75H9.83334C10.79 26.75 11.5833 27.5433 11.5833 28.5C11.5833 29.4567 10.79 30.25 9.83334 30.25Z" fill="#FE8400"/>
<path d="M28.5 53.5833C27.5433 53.5833 26.75 52.79 26.75 51.8333V47.1667C26.75 46.21 27.5433 45.4167 28.5 45.4167C29.4567 45.4167 30.25 46.21 30.25 47.1667V51.8333C30.25 52.79 29.4567 53.5833 28.5 53.5833Z" fill="#FE8400"/>
<path d="M51.8333 30.25H47.1667C46.21 30.25 45.4167 29.4567 45.4167 28.5C45.4167 27.5433 46.21 26.75 47.1667 26.75H51.8333C52.79 26.75 53.5833 27.5433 53.5833 28.5C53.5833 29.4567 52.79 30.25 51.8333 30.25Z" fill="#FE8400"/>
</svg>
