<svg width="25" height="24" viewBox="0 0 25 24" fill="none" xmlns="http://www.w3.org/2000/svg">
<path d="M12.5 14.17C10.37 14.17 8.63 12.44 8.63 10.3C8.63 8.16 10.37 6.44 12.5 6.44C14.63 6.44 16.37 8.17 16.37 10.31C16.37 12.45 14.63 14.17 12.5 14.17ZM12.5 7.94C11.2 7.94 10.13 9 10.13 10.31C10.13 11.62 11.19 12.68 12.5 12.68C13.81 12.68 14.87 11.62 14.87 10.31C14.87 9 13.8 7.94 12.5 7.94Z" fill="#292D32"/>
<path d="M12.5 22.76C11.02 22.76 9.52999 22.2 8.36999 21.09C5.41999 18.25 2.15999 13.72 3.38999 8.33C4.49999 3.44 8.76999 1.25 12.5 1.25C12.5 1.25 12.5 1.25 12.51 1.25C16.24 1.25 20.51 3.44 21.62 8.34C22.84 13.73 19.58 18.25 16.63 21.09C15.47 22.2 13.98 22.76 12.5 22.76ZM12.5 2.75C9.58999 2.75 5.84999 4.3 4.85999 8.66C3.77999 13.37 6.73999 17.43 9.41999 20C11.15 21.67 13.86 21.67 15.59 20C18.26 17.43 21.22 13.37 20.16 8.66C19.16 4.3 15.41 2.75 12.5 2.75Z" fill="#292D32"/>
</svg>
