<svg width="57" height="57" viewBox="0 0 57 57" fill="none" xmlns="http://www.w3.org/2000/svg">
<path d="M28.5 39.5833C27.5667 39.5833 26.6333 39.5133 25.7467 39.35C20.8 38.6266 16.2967 35.78 13.45 31.5566C11.4667 28.57 10.4167 25.0933 10.4167 21.5C10.4167 11.5367 18.5367 3.41666 28.5 3.41666C38.4633 3.41666 46.5833 11.5367 46.5833 21.5C46.5833 25.0933 45.5333 28.57 43.55 31.5566C40.68 35.8033 36.1767 38.6267 31.1833 39.3733C30.3667 39.5133 29.4333 39.5833 28.5 39.5833ZM28.5 6.91666C20.45 6.91666 13.9167 13.45 13.9167 21.5C13.9167 24.4167 14.7567 27.2167 16.3433 29.5967C18.6533 33.0033 22.27 35.29 26.2833 35.8733C27.7767 36.13 29.2467 36.13 30.6233 35.8733C34.7067 35.29 38.3233 32.98 40.6333 29.5733C42.22 27.1933 43.06 24.3933 43.06 21.4766C43.0833 13.45 36.55 6.91666 28.5 6.91666Z" fill="#FE8400"/>
<path d="M15.5962 53.2099C15.2696 53.2099 14.9662 53.1633 14.6396 53.0933C13.1229 52.7433 11.9562 51.5766 11.6062 50.0599L10.7896 46.6299C10.7429 46.4199 10.5796 46.2566 10.3462 46.1866L6.49624 45.2766C5.04957 44.9266 3.90624 43.8533 3.50957 42.4299C3.11291 41.0066 3.50957 39.4666 4.55957 38.4166L13.6596 29.3166C14.0329 28.9433 14.5462 28.7566 15.0596 28.8033C15.5729 28.8499 16.0396 29.1299 16.3429 29.5733C18.6529 32.9799 22.2696 35.2899 26.3062 35.8733C27.7996 36.1299 29.2696 36.1299 30.6462 35.8733C34.7296 35.2899 38.3462 32.9799 40.6562 29.5733C40.9362 29.1299 41.4262 28.8499 41.9396 28.8033C42.4529 28.7566 42.9662 28.9433 43.3396 29.3166L52.4396 38.4166C53.4896 39.4666 53.8862 41.0066 53.4896 42.4299C53.0929 43.8533 51.9262 44.9499 50.5029 45.2766L46.6529 46.1866C46.4429 46.2332 46.2796 46.3966 46.2096 46.6299L45.3929 50.0599C45.0429 51.5766 43.8762 52.7433 42.3596 53.0933C40.8429 53.4666 39.2796 52.9299 38.2996 51.7399L28.4996 40.4699L18.6996 51.7633C17.9062 52.6966 16.7862 53.2099 15.5962 53.2099ZM14.7096 33.2366L7.0329 40.9133C6.8229 41.1233 6.84624 41.3566 6.89291 41.4966C6.91624 41.6133 7.03291 41.8466 7.31291 41.8932L11.1629 42.8033C12.6796 43.1533 13.8462 44.3199 14.1962 45.8366L15.0129 49.2666C15.0829 49.5699 15.3162 49.6633 15.4562 49.7099C15.5962 49.7333 15.8296 49.7566 16.0396 49.5233L24.9762 39.2333C21.0096 38.4633 17.3696 36.3399 14.7096 33.2366ZM32.0229 39.2099L40.9596 49.4766C41.1696 49.7332 41.4262 49.7332 41.5662 49.6866C41.7062 49.6632 41.9162 49.5466 42.0096 49.2433L42.8262 45.8133C43.1762 44.2966 44.3429 43.1299 45.8596 42.7799L49.7096 41.87C49.9896 41.8 50.1062 41.5899 50.1296 41.4733C50.1762 41.3566 50.1996 41.0999 49.9896 40.8899L42.3129 33.2132C39.6296 36.3166 36.0129 38.4399 32.0229 39.2099Z" fill="#FE8400"/>
<path d="M32.9103 30.5767C32.3037 30.5767 31.5803 30.4133 30.717 29.9L28.5003 28.57L26.2837 29.8766C24.2537 31.09 22.9237 30.39 22.4337 30.04C21.9437 29.69 20.8937 28.64 21.4303 26.33L21.9903 23.9267L20.1237 22.2C19.097 21.1733 18.7237 19.9367 19.0737 18.8167C19.4237 17.6967 20.4503 16.9033 21.897 16.67L24.3937 16.25L25.5837 13.6367C26.2603 12.3067 27.3103 11.56 28.5003 11.56C29.6903 11.56 30.7637 12.33 31.417 13.66L32.7937 16.4133L35.1037 16.6933C36.527 16.9267 37.5537 17.72 37.927 18.84C38.277 19.96 37.9037 21.1967 36.877 22.2233L34.9403 24.16L35.547 26.33C36.0837 28.64 35.0337 29.69 34.5437 30.04C34.287 30.25 33.727 30.5767 32.9103 30.5767ZM22.9237 20.0767L24.5337 21.6866C25.2803 22.4333 25.6537 23.6933 25.4203 24.72L24.977 26.5866L26.8437 25.49C27.847 24.9066 29.2003 24.9066 30.1803 25.49L32.047 26.5866L31.627 24.72C31.3937 23.67 31.7437 22.4333 32.4903 21.6866L34.1003 20.0767L32.0703 19.7266C31.0903 19.5633 30.1103 18.84 29.667 17.9533L28.5003 15.6667L27.3337 18C26.9137 18.8633 25.9337 19.61 24.9537 19.7733L22.9237 20.0767Z" fill="#FE8400"/>
</svg>
