<svg width="57" height="57" viewBox="0 0 57 57" fill="none" xmlns="http://www.w3.org/2000/svg">
<path d="M35.5 53.5833H21.5C8.82999 53.5833 3.41666 48.17 3.41666 35.5V21.5C3.41666 8.82999 8.82999 3.41666 21.5 3.41666H35.5C48.17 3.41666 53.5833 8.82999 53.5833 21.5V35.5C53.5833 48.17 48.17 53.5833 35.5 53.5833ZM21.5 6.91666C10.7433 6.91666 6.91666 10.7433 6.91666 21.5V35.5C6.91666 46.2567 10.7433 50.0833 21.5 50.0833H35.5C46.2567 50.0833 50.0833 46.2567 50.0833 35.5V21.5C50.0833 10.7433 46.2567 6.91666 35.5 6.91666H21.5Z" fill="#FE8400"/>
<path d="M28.5 42.5234C21.1033 42.5234 15.0833 36.5034 15.0833 29.1067C15.0833 21.71 21.1033 15.69 28.5 15.69C29.9933 15.69 31.4867 15.9 32.91 16.3434C33.8433 16.6234 34.3567 17.6034 34.0767 18.5367C33.7967 19.47 32.8167 19.9834 31.8833 19.7034C30.81 19.3767 29.6667 19.2134 28.5 19.2134C23.04 19.2134 18.5833 23.67 18.5833 29.13C18.5833 34.59 23.04 39.0467 28.5 39.0467C33.96 39.0467 38.4167 34.59 38.4167 29.13C38.4167 27.1467 37.8333 25.2567 36.76 23.6234C36.2233 22.83 36.4333 21.7334 37.25 21.1967C38.0433 20.66 39.14 20.87 39.6767 21.6867C41.1467 23.9034 41.94 26.47 41.94 29.13C41.9167 36.5267 35.8967 42.5234 28.5 42.5234Z" fill="#FE8400"/>
<path d="M34.0537 20.1C33.5637 20.1 33.0737 19.89 32.7237 19.4934L28.8271 15.0367C28.1971 14.3134 28.2671 13.1934 28.9904 12.5634C29.7137 11.9334 30.8337 12.0034 31.4637 12.7267L35.3604 17.1834C35.9904 17.9067 35.9204 19.0267 35.197 19.6567C34.8704 19.96 34.4737 20.1 34.0537 20.1Z" fill="#FE8400"/>
<path d="M29.5264 23.4133C28.9898 23.4133 28.4531 23.1566 28.1031 22.69C27.5431 21.92 27.7064 20.8233 28.4764 20.24L33.0031 16.9266C33.7731 16.3666 34.8698 16.53 35.4531 17.3C36.0131 18.07 35.8498 19.1666 35.0798 19.75L30.5531 23.0633C30.2498 23.2966 29.8764 23.4133 29.5264 23.4133Z" fill="#FE8400"/>
</svg>
